<?xml version="1.0" encoding="UTF-8" standalone="no"?>
<!-- Generator: Adobe Illustrator 18.1.0, SVG Export Plug-In . SVG Version: 6.00 Build 0)  -->

<svg
   xmlns:dc="http://purl.org/dc/elements/1.1/"
   xmlns:cc="http://creativecommons.org/ns#"
   xmlns:rdf="http://www.w3.org/1999/02/22-rdf-syntax-ns#"
   xmlns:svg="http://www.w3.org/2000/svg"
   xmlns="http://www.w3.org/2000/svg"
   xmlns:xlink="http://www.w3.org/1999/xlink"
   xmlns:sodipodi="http://sodipodi.sourceforge.net/DTD/sodipodi-0.dtd"
   xmlns:inkscape="http://www.inkscape.org/namespaces/inkscape"
   version="1.1"
   id="Layer_1"
   x="0px"
   y="0px"
   viewBox="0 0 1800 2360"
   enable-background="new 0 0 792 612"
   xml:space="preserve"
   inkscape:version="0.91 r13725"
   sodipodi:docname="cover.svg"
   width="1800"
   height="2360"
   inkscape:export-filename="/Applications/Inkscape.app/cover_small.jpg"
   inkscape:export-xdpi="10"
   inkscape:export-ydpi="10"><metadata
     id="metadata513"><rdf:RDF><cc:Work
         rdf:about=""><dc:format>image/svg+xml</dc:format><dc:type
           rdf:resource="http://purl.org/dc/dcmitype/StillImage" /><dc:title></dc:title></cc:Work></rdf:RDF></metadata><defs
     id="defs511"><linearGradient
       inkscape:collect="always"
       xlink:href="#SVGID_1_"
       id="linearGradient3454"
       gradientUnits="userSpaceOnUse"
       x1="-2544.8279"
       y1="-282.45581"
       x2="-2240.3093"
       y2="-282.45581" /><linearGradient
       inkscape:collect="always"
       xlink:href="#SVGID_2_"
       id="linearGradient3456"
       gradientUnits="userSpaceOnUse"
       x1="-2544.8279"
       y1="-499.13101"
       x2="-2240.3093"
       y2="-499.13101" /><linearGradient
       inkscape:collect="always"
       xlink:href="#SVGID_1_"
       id="linearGradient4274"
       gradientUnits="userSpaceOnUse"
       x1="-2544.8279"
       y1="-282.45581"
       x2="-2240.3093"
       y2="-282.45581" /><linearGradient
       inkscape:collect="always"
       xlink:href="#SVGID_2_"
       id="linearGradient4276"
       gradientUnits="userSpaceOnUse"
       x1="-2544.8279"
       y1="-499.13101"
       x2="-2240.3093"
       y2="-499.13101" /></defs><sodipodi:namedview
     pagecolor="#ffffff"
     bordercolor="#666666"
     borderopacity="1"
     objecttolerance="10"
     gridtolerance="10"
     guidetolerance="10"
     inkscape:pageopacity="0"
     inkscape:pageshadow="2"
     inkscape:window-width="1128"
     inkscape:window-height="629"
     id="namedview509"
     showgrid="false"
     inkscape:zoom="0.19281045"
     inkscape:cx="802.93825"
     inkscape:cy="1394.4971"
     inkscape:window-x="0"
     inkscape:window-y="0"
     inkscape:window-maximized="0"
     inkscape:current-layer="Layer_1" /><g
     transform="matrix(4.2916482,0,0,4.2916482,-3187.0714,-3305.1303)"
     id="g3408"
     style="opacity:0.056"><circle
       cx="1049.2897"
       cy="899.43005"
       id="circle3410"
       style="fill:#6d6e71"
       r="33.534321" /><g
       id="g3412"
       transform="matrix(1.5670243,0,0,1.5670243,4647.7673,1782.2917)"><linearGradient
         id="linearGradient3414"
         gradientUnits="userSpaceOnUse"
         x1="-2544.8279"
         y1="-282.45581"
         x2="-2240.3093"
         y2="-282.45581"><stop
           offset="5.220520e-02"
           style="stop-color:#F78D26"
           id="stop3416" /><stop
           offset="0.2056"
           style="stop-color:#F68826"
           id="stop3418" /><stop
           offset="0.4323"
           style="stop-color:#F37A25"
           id="stop3420" /><stop
           offset="0.4766"
           style="stop-color:#F37625"
           id="stop3422" /><stop
           offset="0.6159"
           style="stop-color:#E76623"
           id="stop3424" /><stop
           offset="0.8356"
           style="stop-color:#DC5221"
           id="stop3426" /><stop
           offset="0.9873"
           style="stop-color:#D84B21"
           id="stop3428" /></linearGradient><path
         d="m -2392.6,-277.6 c -65.5,0 -122.6,-23.5 -152.3,-58.3 22.5,62.4 82.2,106.9 152.3,106.9 70.1,0 129.8,-44.6 152.3,-106.9 -29.7,34.8 -86.8,58.3 -152.3,58.3 z"
         id="path3430"
         style="fill:url(#linearGradient3454)"
         inkscape:connector-curvature="0" /><linearGradient
         id="linearGradient3432"
         gradientUnits="userSpaceOnUse"
         x1="-2544.8279"
         y1="-499.13101"
         x2="-2240.3093"
         y2="-499.13101"><stop
           offset="5.220520e-02"
           style="stop-color:#F78D26"
           id="stop3434" /><stop
           offset="0.2056"
           style="stop-color:#F68826"
           id="stop3436" /><stop
           offset="0.4323"
           style="stop-color:#F37A25"
           id="stop3438" /><stop
           offset="0.4766"
           style="stop-color:#F37625"
           id="stop3440" /><stop
           offset="0.6159"
           style="stop-color:#E76623"
           id="stop3442" /><stop
           offset="0.8356"
           style="stop-color:#DC5221"
           id="stop3444" /><stop
           offset="0.9873"
           style="stop-color:#D84B21"
           id="stop3446" /></linearGradient><path
         d="m -2392.6,-504 c 65.5,0 122.6,23.5 152.3,58.3 -22.5,-62.4 -82.2,-106.9 -152.3,-106.9 -70.1,0 -129.8,44.6 -152.3,106.9 29.8,-34.7 86.8,-58.3 152.3,-58.3 z"
         id="path3448"
         style="fill:url(#linearGradient3456)"
         inkscape:connector-curvature="0" /></g><circle
       cx="705.64124"
       cy="1453.8433"
       id="circle3450"
       style="fill:#939598"
       r="40.429226" /><circle
       cx="665.83899"
       cy="945.50061"
       id="circle3452"
       style="fill:#58595b"
       r="24.602282" /></g><g
     id="g3376"
     transform="matrix(1.6803238,0,0,1.6803238,-598.09086,-795.50459)"><circle
       r="33.534321"
       style="fill:#6d6e71"
       id="circle19"
       cy="899.43005"
       cx="1049.2897" /><g
       transform="matrix(1.5670243,0,0,1.5670243,4647.7673,1782.2917)"
       id="g21"><linearGradient
         y2="-282.45581"
         x2="-2240.3093"
         y1="-282.45581"
         x1="-2544.8279"
         gradientUnits="userSpaceOnUse"
         id="SVGID_1_"><stop
           id="stop24"
           style="stop-color:#F78D26"
           offset="5.220520e-02" /><stop
           id="stop26"
           style="stop-color:#F68826"
           offset="0.2056" /><stop
           id="stop28"
           style="stop-color:#F37A25"
           offset="0.4323" /><stop
           id="stop30"
           style="stop-color:#F37625"
           offset="0.4766" /><stop
           id="stop32"
           style="stop-color:#E76623"
           offset="0.6159" /><stop
           id="stop34"
           style="stop-color:#DC5221"
           offset="0.8356" /><stop
           id="stop36"
           style="stop-color:#D84B21"
           offset="0.9873" /></linearGradient><path
         inkscape:connector-curvature="0"
         style="fill:url(#linearGradient4274)"
         id="path38"
         d="m -2392.6,-277.6 c -65.5,0 -122.6,-23.5 -152.3,-58.3 22.5,62.4 82.2,106.9 152.3,106.9 70.1,0 129.8,-44.6 152.3,-106.9 -29.7,34.8 -86.8,58.3 -152.3,58.3 z" /><linearGradient
         y2="-499.13101"
         x2="-2240.3093"
         y1="-499.13101"
         x1="-2544.8279"
         gradientUnits="userSpaceOnUse"
         id="SVGID_2_"><stop
           id="stop41"
           style="stop-color:#F78D26"
           offset="5.220520e-02" /><stop
           id="stop43"
           style="stop-color:#F68826"
           offset="0.2056" /><stop
           id="stop45"
           style="stop-color:#F37A25"
           offset="0.4323" /><stop
           id="stop47"
           style="stop-color:#F37625"
           offset="0.4766" /><stop
           id="stop49"
           style="stop-color:#E76623"
           offset="0.6159" /><stop
           id="stop51"
           style="stop-color:#DC5221"
           offset="0.8356" /><stop
           id="stop53"
           style="stop-color:#D84B21"
           offset="0.9873" /></linearGradient><path
         inkscape:connector-curvature="0"
         style="fill:url(#linearGradient4276)"
         id="path55"
         d="m -2392.6,-504 c 65.5,0 122.6,23.5 152.3,58.3 -22.5,-62.4 -82.2,-106.9 -152.3,-106.9 -70.1,0 -129.8,44.6 -152.3,106.9 29.8,-34.7 86.8,-58.3 152.3,-58.3 z" /></g><circle
       r="40.429226"
       style="fill:#939598"
       id="circle57"
       cy="1453.8433"
       cx="705.64124" /><circle
       r="24.602282"
       style="fill:#58595b"
       id="circle59"
       cy="945.50061"
       cx="665.83899" /></g><flowRoot
     xml:space="preserve"
     id="flowRoot3903"
     style="font-style:normal;font-weight:normal;font-size:152.00888062px;line-height:125%;font-family:Sans;letter-spacing:0px;word-spacing:0px;fill:#4d4d4d;fill-opacity:1;stroke:none;stroke-width:1px;stroke-linecap:butt;stroke-linejoin:miter;stroke-opacity:1;"
     transform="matrix(1.137409,0,0,1.137409,-10.047591,-1853.1235)"><flowRegion
       id="flowRegion3905"><rect
         id="rect3907"
         width="4989.3779"
         height="1365.8074"
         x="272.42813"
         y="1732.0103"
         style="fill:#4d4d4d;" /></flowRegion><flowPara
       id="flowPara3909"
       style="font-style:normal;font-variant:normal;font-weight:normal;font-stretch:normal;font-family:'Myriad Pro';-inkscape-font-specification:'Myriad Pro';fill:#4d4d4d;">Community docs</flowPara></flowRoot><flowRoot
     transform="matrix(0.72907405,0,0,0.72907405,-120.31476,844.97608)"
     style="font-style:normal;font-weight:normal;font-size:152.00888062px;line-height:125%;font-family:Sans;letter-spacing:0px;word-spacing:0px;fill:#333333;fill-opacity:1;stroke:none;stroke-width:1px;stroke-linecap:butt;stroke-linejoin:miter;stroke-opacity:1"
     id="flowRoot3400"
     xml:space="preserve"><flowRegion
       id="flowRegion3402"><rect
         y="1732.0103"
         x="272.42813"
         height="1365.8074"
         width="4989.3779"
         id="rect3404"
         style="fill:#333333" /></flowRegion><flowPara
       style="font-style:normal;font-variant:normal;font-weight:normal;font-stretch:normal;font-family:'Myriad Pro';-inkscape-font-specification:'Myriad Pro';fill:#333333"
       id="flowPara3406">By: Jupyter Users</flowPara></flowRoot><g
     style="fill:#4d4d4d"
     transform="matrix(2.9863424,0,0,2.9863424,8043.6278,2334.8773)"
     id="g4258"><path
       style="fill:#4d4d4d"
       inkscape:connector-curvature="0"
       id="path4260"
       d="m -2551.7,-372 c 0,12.7 -1,16.9 -3.6,20 -2.3,2.5 -6.1,3.7 -10.5,4.1 l 1,7.6 c 5.2,0 12.2,-1.8 16.5,-6 4.7,-4.8 6.4,-11.5 6.4,-21.9 l 0,-48.2 -9.7,0 0,44.4 z" /><path
       style="fill:#4d4d4d"
       inkscape:connector-curvature="0"
       id="path4262"
       d="m -2479.5,-377.8 c 0,5.5 0.1,10.3 0.4,14.5 l -8.6,0 -0.5,-8.7 -0.2,0 c -2.5,4.3 -8.1,9.9 -17.6,9.9 -8.3,0 -18.3,-4.6 -18.3,-23.3 l 0,-31.1 9.7,0 0,29.4 c 0,10.1 3.1,16.9 11.9,16.9 6.5,0 11,-4.5 12.7,-8.8 0.5,-1.4 0.9,-3.2 0.9,-4.9 l 0,-32.6 9.7,0 0,38.7 z" /><path
       style="fill:#4d4d4d"
       inkscape:connector-curvature="0"
       id="path4264"
       d="m -2461.3,-399.1 c 0,-6.8 -0.2,-12.3 -0.4,-17.3 l 8.7,0 0.4,9.1 0.2,0 c 4,-6.5 10.2,-10.3 18.9,-10.3 12.8,0 22.5,10.9 22.5,27 0,19.1 -11.6,28.5 -24.2,28.5 -7,0 -13.2,-3.1 -16.4,-8.3 l -0.2,0 0,28.9 -9.6,0 0,-57.6 z m 9.6,14.2 c 0,1.4 0.2,2.7 0.4,4 1.8,6.7 7.6,11.3 14.5,11.3 10.2,0 16.1,-8.3 16.1,-20.5 0,-10.7 -5.6,-19.8 -15.8,-19.8 -6.6,0 -12.7,4.7 -14.6,12 -0.3,1.2 -0.7,2.6 -0.7,4 l 0,9 z" /><path
       style="fill:#4d4d4d"
       inkscape:connector-curvature="0"
       id="path4266"
       d="m -2393.9,-416.4 11.6,31.4 c 1.2,3.5 2.5,7.7 3.4,10.9 l 0.2,0 c 1,-3.2 2.1,-7.2 3.4,-11.1 l 10.5,-31.2 10.2,0 -14.5,37.9 c -6.9,18.2 -11.6,27.6 -18.2,33.3 -4.7,4.2 -9.4,5.8 -11.9,6.3 l -2.4,-8.1 c 2.4,-0.8 5.6,-2.3 8.5,-4.7 2.6,-2.1 5.9,-5.8 8.1,-10.8 0.4,-1 0.8,-1.8 0.8,-2.3 0,-0.5 -0.2,-1.3 -0.7,-2.5 l -19.7,-49 10.7,0 z" /><path
       style="fill:#4d4d4d"
       inkscape:connector-curvature="0"
       id="path4268"
       d="m -2329,-431.7 0,15.3 13.8,0 0,7.4 -13.8,0 0,28.7 c 0,6.6 1.9,10.3 7.2,10.3 2.5,0 4.4,-0.3 5.6,-0.7 l 0.4,7.2 c -1.9,0.8 -4.8,1.3 -8.6,1.3 -4.5,0 -8.1,-1.4 -10.4,-4.1 -2.7,-2.9 -3.7,-7.6 -3.7,-13.8 l 0,-29 -8.2,0 0,-7.4 8.2,0 0,-12.7 9.5,-2.5 z" /><path
       style="fill:#4d4d4d"
       inkscape:connector-curvature="0"
       id="path4270"
       d="m -2297.4,-388.1 c 0.2,13.1 8.6,18.4 18.2,18.4 6.9,0 11.1,-1.2 14.7,-2.7 l 1.6,6.9 c -3.4,1.5 -9.2,3.3 -17.7,3.3 -16.4,0 -26.1,-10.8 -26.1,-26.8 0,-16 9.4,-28.7 24.9,-28.7 17.3,0 22,15.3 22,25 0,2 -0.2,3.5 -0.3,4.5 l -37.3,0 z m 28.3,-6.9 c 0.1,-6.1 -2.5,-15.7 -13.4,-15.7 -9.8,0 -14.1,9 -14.8,15.7 l 28.2,0 z" /><path
       style="fill:#4d4d4d"
       inkscape:connector-curvature="0"
       id="path4272"
       d="m -2245.6,-399.9 c 0,-6.3 -0.1,-11.6 -0.4,-16.6 l 8.5,0 0.3,10.4 0.4,0 c 2.4,-7.1 8.2,-11.6 14.7,-11.6 1.1,0 1.9,0.1 2.7,0.3 l 0,9.1 c -1,-0.2 -2,-0.3 -3.3,-0.3 -6.8,0 -11.6,5.2 -13,12.4 -0.2,1.3 -0.4,2.9 -0.4,4.5 l 0,28.3 -9.6,0 0,-36.5 z" /></g><path
     style="fill:#4d4d4d"
     d="m 1524.3111,2254.5603 c -19.2608,-15.7993 -74.1068,-31.2796 -122.5546,-34.591 -8.1979,-0.5604 -19.9358,-1.4543 -26.0842,-1.9864 l -11.179,-0.9676 0,-124.8707 0,-124.8707 9.5228,0.017 c 14.2227,0.025 47.2809,3.0851 64.1755,5.9395 33.5642,5.6707 60.4882,15.1888 80.0266,28.2908 5.8695,3.9359 10.9978,7.1561 11.3962,7.1561 0.3984,0 3.8398,-2.1366 7.6474,-4.7482 30.3011,-20.7826 75.1743,-32.526 137.3442,-35.9432 l 21.1158,-1.1607 0,125.2631 0,125.2631 -4.7279,0 c -11.6864,0 -49.2191,3.6875 -67.3143,6.6135 -36.8323,5.9558 -66.1906,16.1612 -86.4178,30.0398 -3.8076,2.6126 -7.1613,4.7234 -7.4527,4.6906 -0.2913,-0.033 -2.7654,-1.8936 -5.498,-4.135 z m -14.4756,-135.2786 0.4297,-80.6354 -3.6403,-3.3915 c -3.9669,-3.6957 -24.3291,-12.0198 -38.3114,-15.6617 -13.9533,-3.6344 -40.8163,-7.883 -51.6517,-8.169 l -9.9368,-0.2624 0,82.8072 0,82.8071 12.421,1.2467 c 6.8315,0.6857 15.0295,1.4311 18.2176,1.6562 l 5.7965,0.4093 0.4431,-42.1228 0.4431,-42.1228 -4.7988,-5.0772 c -6.8343,-7.231 -8.5094,-11.2279 -8.5023,-20.2878 0.012,-15.3398 10.39,-25.3478 26.2966,-25.3588 11.0804,-0.01 18.8904,4.4397 23.433,13.3439 5.7168,11.2058 3.3532,24.3779 -5.9413,33.1096 l -4.047,3.802 0,45.0524 c 0,34.1831 0.5028,45.4698 2.0842,46.7822 3.1201,2.5895 31.4891,13.3192 34.3509,12.9921 2.1637,-0.2473 2.5396,-10.6874 2.9139,-80.9193 z m 64.8625,74.2233 c 23.4822,-8.1691 46.8658,-13.6652 64.985,-15.2736 6.6831,-0.5933 13.0826,-1.8136 14.2212,-2.712 1.6055,-1.2666 2.0645,-19.5249 2.0448,-81.3394 -0.013,-43.8383 -0.6761,-80.7333 -1.4713,-81.9889 -1.8139,-2.8639 -15.3929,-1.6408 -44.7601,4.0318 -23.4678,4.5329 -37.0719,8.7755 -48.9714,15.272 l -8.2807,4.5209 -0.4358,56.717 c -0.3575,46.5328 -0.037,56.7168 1.7846,56.7168 4.1067,0 23.4577,-8.5488 27.205,-12.0184 5.4081,-5.0075 10.3655,-16.2365 10.3655,-23.4789 0,-4.6093 -1.3075,-7.7862 -4.878,-11.8529 -12.804,-14.5828 -8.2216,-36.4135 9.0259,-43.0005 18.0329,-6.8868 37.2557,5.1942 37.2557,23.4141 0,8.9741 -1.8406,13.7939 -7.9409,20.7947 -3.2579,3.7386 -5.2481,8.264 -6.0613,13.782 -4.1044,27.851 -22.9855,48.1849 -53.8996,58.0469 -5.0099,1.5981 -10.0404,3.6436 -11.179,4.5455 -2.1082,1.6698 -3.0384,21.108 -1.0102,21.108 0.5831,0 10.4833,-3.2783 22.0006,-7.2851 z m 41.1149,-101.347 c 4.6296,-5.1813 4.7818,-12.1651 0.3682,-16.9025 -8.7408,-9.3822 -22.9581,-3.8133 -23.0874,9.0433 -0.039,3.8795 1.3018,6.375 5.1779,9.6365 6.1999,5.2168 11.7987,4.6496 17.5413,-1.7773 z m -152.0695,-9.7209 c 5.042,-2.6072 6.7431,-5.5474 6.7431,-11.6542 0,-6.157 -1.7098,-9.0515 -6.9462,-11.7594 -9.4601,-4.8919 -19.5522,0.9967 -19.5522,11.4087 0,11.6465 9.401,17.3593 19.7553,12.0049 z"
     id="path4343"
     inkscape:connector-curvature="0" /><rect
     style="opacity:1;fill:#ffffff;fill-opacity:1;stroke:none;stroke-width:3.9000001;stroke-linecap:round;stroke-miterlimit:4;stroke-dasharray:none;stroke-dashoffset:0;stroke-opacity:1"
     id="rect4345"
     width="623.45245"
     height="1984.0458"
     x="-627.11981"
     y="595.99628" /><rect
     y="2367.3347"
     x="-443.75143"
     height="1984.0458"
     width="2486.4751"
     id="rect4347"
     style="opacity:1;fill:#ffffff;fill-opacity:1;stroke:none;stroke-width:3.9000001;stroke-linecap:round;stroke-miterlimit:4;stroke-dasharray:none;stroke-dashoffset:0;stroke-opacity:1" /></svg>